<svg width="8" height="10" viewBox="0 0 8 10" fill="none" xmlns="http://www.w3.org/2000/svg">
    <path
        d="M1.5 0H4.80813C4.97387 3.53984e-05 5.13282 0.0659067 5.25 0.183125L7.56687 2.5C7.68409 2.61718 7.74996 2.77613 7.75 2.94187V8.75C7.75 9.08152 7.6183 9.39946 7.38388 9.63388C7.14946 9.8683 6.83152 10 6.5 10H1.5C1.16848 10 0.850537 9.8683 0.616116 9.63388C0.381696 9.39946 0.25 9.08152 0.25 8.75V1.25C0.25 0.918479 0.381696 0.600537 0.616116 0.366117C0.850537 0.131696 1.16848 0 1.5 0ZM4.9375 0.9375V2.1875C4.9375 2.35326 5.00335 2.51223 5.12056 2.62944C5.23777 2.74665 5.39674 2.8125 5.5625 2.8125H6.8125L4.9375 0.9375Z"
        fill="#3B4053" />
</svg>
    